<svg
  width="512"
  height="512"
  viewBox="0 0 512 512"
  fill="none"
  xmlns="http://www.w3.org/2000/svg"
>
  <rect
    width="512"
    height="512"
    rx="64"
    ry="64"
    fill="black"
  />
  <g transform="translate(45, 45) scale(0.82)">
    <path
      d="M3 248.945C18 248.945 76 236 106 219C136 202 136 202 198 158C276.497 102.293 332 120.945 423 120.945"
      stroke="white"
      stroke-width="90"
    />
    <path
      d="M511 121.5L357.25 210.268L357.25 32.7324L511 121.5Z"
      fill="white"
    />
    <path
      d="M0 249C15 249 73 261.945 103 278.945C133 295.945 133 295.945 195 339.945C273.497 395.652 329 377 420 377"
      stroke="white"
      stroke-width="90"
    />
    <path
      d="M508 376.445L354.25 287.678L354.25 465.213L508 376.445Z"
      fill="white"
    />
  </g>
</svg>